<svg xmlns="http://www.w3.org/2000/svg" width="960" height="520" viewBox="0 0 960 520">
  <rect width="960" height="520" fill="#f6f8ff"/>
  <rect x="32" y="32" width="896" height="456" rx="16" fill="#fff" stroke="#c7d2fe"/>
  <text x="64" y="82" font-family="Arial, sans-serif" font-size="28" font-weight="700" fill="#111827">人工节点工作台</text>
  <text x="64" y="116" font-family="Arial, sans-serif" font-size="16" fill="#64748b">修改后：展示主任务、原始诉求、上下文汇总和上游 Agent 输出。</text>
  <rect x="64" y="154" width="300" height="284" rx="10" fill="#f8fafc" stroke="#dbe4ff"/>
  <text x="86" y="194" font-family="Arial, sans-serif" font-size="18" font-weight="700" fill="#1f2937">人工节点队列</text>
  <rect x="86" y="222" width="256" height="78" rx="8" fill="#eef6ff" stroke="#7dd3fc"/>
  <text x="106" y="252" font-family="Arial, sans-serif" font-size="17" font-weight="700" fill="#111827">人工审核</text>
  <text x="106" y="280" font-family="Arial, sans-serif" font-size="14" fill="#475569">所属任务：热点信息统计</text>
  <rect x="396" y="154" width="468" height="284" rx="10" fill="#fff" stroke="#dbe4ff"/>
  <text x="420" y="194" font-family="Arial, sans-serif" font-size="18" font-weight="700" fill="#1f2937">人工处理</text>
  <rect x="420" y="222" width="420" height="78" rx="8" fill="#f8fafc" stroke="#e2e8f0"/>
  <text x="442" y="252" font-family="Arial, sans-serif" font-size="15" fill="#334155">子任务：人工审核</text>
  <text x="442" y="280" font-family="Arial, sans-serif" font-size="15" fill="#334155">处理人：李晨</text>
  <rect x="420" y="316" width="420" height="96" rx="8" fill="#ecfeff" stroke="#93c5fd"/>
  <text x="442" y="346" font-family="Arial, sans-serif" font-size="15" font-weight="700" fill="#1e3a8a">判断上下文</text>
  <text x="442" y="374" font-family="Arial, sans-serif" font-size="14" fill="#334155">主任务：热点信息统计</text>
  <text x="442" y="398" font-family="Arial, sans-serif" font-size="14" fill="#334155">原始诉求：统计热点信息，审核后发布</text>
  <rect x="420" y="426" width="420" height="32" rx="8" fill="#f8fafc" stroke="#e2e8f0"/>
  <text x="442" y="448" font-family="Arial, sans-serif" font-size="13" fill="#334155">上游输出：热点统计 Agent 已生成统计摘要...</text>
</svg>
