<svg xmlns="http://www.w3.org/2000/svg" width="1200" height="760" viewBox="0 0 1200 760">
  <rect width="1200" height="760" fill="#eef4ff"/>
  <rect x="42" y="34" width="1116" height="692" rx="18" fill="#fff" stroke="#dbeafe"/>
  <text x="72" y="92" font-family="Arial, PingFang SC, sans-serif" font-size="28" font-weight="700" fill="#111827">条件阻塞闭环任务</text>
  <rect x="330" y="67" width="150" height="33" rx="16" fill="#fef3c7"/>
  <text x="350" y="89" font-family="Arial, PingFang SC, sans-serif" font-size="14" fill="#b45309">运行中 · 人工介入</text>
  <rect x="72" y="125" width="1056" height="128" rx="10" fill="#f8feff" stroke="#c7d2fe"/>
  <text x="94" y="161" font-family="Arial, PingFang SC, sans-serif" font-size="20" font-weight="700" fill="#312e81">产出成果</text>
  <rect x="1025" y="143" width="70" height="27" rx="14" fill="#fef3c7"/>
  <text x="1040" y="162" font-family="Arial, PingFang SC, sans-serif" font-size="14" fill="#b45309">待处理</text>
  <text x="94" y="198" font-family="Arial, PingFang SC, sans-serif" font-size="16" fill="#334155">Workflow workflow_001 没有可继续执行的节点，且未到达完成节点。</text>
  <text x="94" y="224" font-family="Arial, PingFang SC, sans-serif" font-size="16" fill="#334155">待处理节点：通过后处理、end</text>
  <rect x="72" y="285" width="1056" height="175" rx="10" fill="#f8feff" stroke="#c7d2fe"/>
  <text x="94" y="321" font-family="Arial, PingFang SC, sans-serif" font-size="20" font-weight="700" fill="#312e81">手动编排流程</text>
  <g>
    <rect x="115" y="347" width="245" height="86" rx="10" fill="#fff" stroke="#bac9e2"/>
    <rect x="115" y="347" width="5" height="86" fill="#f59e0b"/>
    <text x="133" y="381" font-family="Arial, PingFang SC, sans-serif" font-size="20" font-weight="700" fill="#111827">人工审核</text>
    <text x="133" y="413" font-family="Arial, PingFang SC, sans-serif" font-size="14" fill="#64748b">人工拒绝后条件分支无匹配路径。</text>
    <line x1="365" y1="390" x2="420" y2="390" stroke="#0e7490" stroke-width="3"/>
    <polygon points="420,390 408,383 408,397" fill="#0e7490"/>
  </g>
  <g>
    <rect x="445" y="347" width="245" height="86" rx="10" fill="#fff" stroke="#bac9e2"/>
    <rect x="445" y="347" width="5" height="86" fill="#f59e0b"/>
    <text x="463" y="381" font-family="Arial, PingFang SC, sans-serif" font-size="20" font-weight="700" fill="#111827">通过后处理</text>
    <text x="463" y="413" font-family="Arial, PingFang SC, sans-serif" font-size="14" fill="#64748b">未执行</text>
    <line x1="695" y1="390" x2="750" y2="390" stroke="#0e7490" stroke-width="3"/>
    <polygon points="750,390 738,383 738,397" fill="#0e7490"/>
  </g>
  <g>
    <rect x="775" y="347" width="245" height="86" rx="10" fill="#fff" stroke="#bac9e2"/>
    <rect x="775" y="347" width="5" height="86" fill="#f59e0b"/>
    <text x="793" y="381" font-family="Arial, PingFang SC, sans-serif" font-size="20" font-weight="700" fill="#111827">完成</text>
    <text x="793" y="413" font-family="Arial, PingFang SC, sans-serif" font-size="14" fill="#64748b">未到达</text>
  </g>
  <text x="72" y="690" font-family="Arial, PingFang SC, sans-serif" font-size="16" fill="#64748b">改前：用户只能看到阻塞原因，没有地方补充最终结论，任务无法在页面闭环。</text>
</svg>
